<?xml version="1.0" encoding="utf-8"?>
<!-- Generator: Adobe Illustrator 16.0.0, SVG Export Plug-In . SVG Version: 6.00 Build 0)  -->
<!DOCTYPE svg PUBLIC "-//W3C//DTD SVG 1.1//EN" "http://www.w3.org/Graphics/SVG/1.1/DTD/svg11.dtd">
<svg version="1.1" id="Layer_1" xmlns="http://www.w3.org/2000/svg" xmlns:xlink="http://www.w3.org/1999/xlink" x="0px" y="0px"
	 width="512px" height="512px" viewBox="0 0 512 512" enable-background="new 0 0 512 512" xml:space="preserve">
<g fill="#595959">
	<path d="M448,256c0-12-1.25-23.656-3.344-35.031l65.031-37.531l-64-110.875l-65.031,37.563C362.938,95,342.406,83.094,320,75.156V0
		H192v75.156c-22.406,7.938-42.938,19.844-60.656,34.969L66.313,72.563l-64,110.875L67.344,221C65.25,232.344,64,244,64,256
		c0,11.969,1.25,23.625,3.344,35L2.313,328.563l64,110.875l65.063-37.563c17.719,15.156,38.219,27.031,60.625,34.969V512h128
		v-75.156c22.406-7.938,42.938-19.813,60.625-34.969l65.063,37.563l64-110.875l-65.031-37.531C446.75,279.656,448,267.969,448,256z
		 M465.969,340.281l-32,55.438l-37.344-21.563L377,362.844l-17.188,14.719c-14.813,12.719-31.813,22.5-50.5,29.125L288,414.219
		v22.625V480h-64v-43.156v-22.625l-21.313-7.531c-18.656-6.625-35.625-16.406-50.5-29.125L135,362.844l-19.625,11.313
		l-37.344,21.563L46,340.281l37.344-21.563l19.563-11.313l-4.094-22.219C96.938,274.938,96,265.375,96,256
		s0.938-18.938,2.813-29.188l4.094-22.219l-19.563-11.281L46,171.75l32.031-55.469l37.313,21.531l19.594,11.313l17.188-14.656
		c14.938-12.75,31.938-22.531,50.563-29.156L224,97.75V75.156V32h64v43.156V97.75l21.313,7.563
		c18.625,6.625,35.656,16.406,50.563,29.156l17.219,14.656l19.563-11.313l37.313-21.531l32,55.438l-37.313,21.531l-19.563,11.313
		l4.094,22.188C415.094,237.063,416,246.625,416,256s-0.906,18.938-2.813,29.25l-4.094,22.219l19.563,11.281L465.969,340.281z"/>
	<path d="M256,192c35.281,0,64,28.688,64,64c0,35.281-28.719,64-64,64c-35.313,0-64-28.719-64-64C192,220.688,220.688,192,256,192
		 M256,160c-53,0-96,43-96,96s43,96,96,96s96-43,96-96S309,160,256,160L256,160z"/>
</g>
</svg>
